<svg xmlns="http://www.w3.org/2000/svg" width="134" height="43" viewBox="0 0 134 43" fill="none"><path fill-rule="evenodd" clip-rule="evenodd" d="M108.327 10.0672C107.717 10.0669 107.131 10.3084 106.7 10.7385C106.268 11.1686 106.025 11.7522 106.025 12.3607C106.025 12.9693 106.267 13.553 106.698 13.9836C107.129 14.4141 107.715 14.6561 108.325 14.6564C108.936 14.6564 109.521 14.4146 109.953 13.984C110.385 13.5535 110.627 12.9696 110.627 12.3607C110.627 11.7519 110.385 11.168 109.953 10.7374C109.521 10.3069 108.936 10.065 108.325 10.065L108.327 10.0672ZM109.913 16.423H106.705C106.643 16.4236 106.584 16.4487 106.54 16.4927C106.496 16.5368 106.472 16.5964 106.472 16.6584V30.6195C106.472 30.7515 106.575 30.855 106.705 30.855H109.916C109.978 30.855 110.038 30.8302 110.083 30.7859C110.127 30.7419 110.152 30.6822 110.152 30.6195V16.6584C110.152 16.596 110.127 16.5361 110.083 16.492C110.038 16.4478 109.978 16.423 109.916 16.423H109.913ZM117.049 16.4362V15.9962C117.049 14.6938 117.55 14.113 118.673 14.113C119.341 14.113 119.878 14.245 120.482 14.4474C120.517 14.4594 120.555 14.4627 120.592 14.4571C120.629 14.4515 120.665 14.437 120.695 14.415C120.725 14.393 120.749 14.3641 120.766 14.3307C120.783 14.2973 120.791 14.2604 120.791 14.223V11.528C120.791 11.4776 120.774 11.4287 120.744 11.3883C120.714 11.3479 120.672 11.3182 120.623 11.3036C119.758 11.0402 118.858 10.911 117.953 10.9208C114.99 10.9208 113.424 12.5862 113.424 15.7344V16.412H111.882C111.82 16.412 111.76 16.4365 111.715 16.4802C111.671 16.5239 111.646 16.5832 111.645 16.6452V19.4106C111.645 19.5404 111.752 19.646 111.882 19.646H113.424V30.624C113.424 30.7515 113.527 30.8573 113.658 30.8573H116.868C116.93 30.8567 116.99 30.8316 117.034 30.7876C117.077 30.7434 117.102 30.6838 117.102 30.6218V19.6438H120.098L124.69 30.6218C124.169 31.7726 123.657 32.0036 122.957 32.0036C122.391 32.0036 121.795 31.834 121.186 31.5018C121.158 31.4868 121.127 31.4775 121.095 31.4744C121.063 31.4713 121.031 31.4747 121 31.4843C120.97 31.4947 120.941 31.5114 120.917 31.5334C120.894 31.5554 120.874 31.5822 120.861 31.6118L119.774 33.99C119.748 34.0436 119.744 34.1051 119.763 34.1615C119.782 34.2179 119.821 34.265 119.873 34.2935C121.009 34.9076 122.035 35.1693 123.302 35.1693C125.671 35.1693 126.982 34.0693 128.136 31.1058L133.705 16.7574C133.719 16.7219 133.725 16.6833 133.721 16.6451C133.717 16.6069 133.703 16.5703 133.682 16.5385C133.66 16.5068 133.631 16.4808 133.597 16.463C133.563 16.4451 133.525 16.4359 133.486 16.4362H130.146C130.097 16.4367 130.05 16.4522 130.01 16.4806C129.971 16.5089 129.941 16.5488 129.925 16.5946L126.501 26.3428L122.75 16.588C122.733 16.5436 122.704 16.5052 122.665 16.4781C122.626 16.451 122.579 16.4364 122.532 16.4362H117.049ZM104.744 16.423H101.214V12.8216C101.214 12.7908 101.208 12.7603 101.196 12.7319C101.184 12.7034 101.167 12.6776 101.145 12.6559C101.123 12.6343 101.097 12.6171 101.068 12.6055C101.04 12.5939 101.009 12.5881 100.978 12.5884H97.7675C97.7058 12.589 97.6466 12.6137 97.6027 12.6574C97.5591 12.701 97.5342 12.76 97.5337 12.8216V16.423H95.9894C95.9585 16.423 95.9276 16.4291 95.8993 16.441C95.8707 16.4528 95.845 16.4702 95.8232 16.4921C95.8014 16.514 95.7841 16.54 95.7725 16.5685C95.7609 16.597 95.7552 16.6276 95.7555 16.6584V19.4084C95.7555 19.5382 95.8614 19.6438 95.9894 19.6438H97.5337V26.7586C97.5337 29.6363 98.9678 31.0925 101.801 31.0925C102.952 31.0925 103.906 30.8573 104.806 30.349C104.842 30.3287 104.872 30.2988 104.893 30.263C104.914 30.2269 104.925 30.186 104.925 30.1446V27.5264C104.926 27.4863 104.916 27.4467 104.896 27.4114C104.877 27.3762 104.849 27.3465 104.815 27.3252C104.781 27.304 104.742 27.2919 104.701 27.2901C104.661 27.2884 104.621 27.297 104.585 27.3152C103.968 27.6254 103.369 27.7684 102.701 27.7684C101.671 27.7684 101.212 27.3042 101.212 26.2592V19.6438H104.742C104.773 19.6441 104.804 19.6382 104.832 19.6265C104.861 19.6148 104.887 19.5974 104.909 19.5755C104.932 19.5536 104.949 19.5276 104.961 19.4988C104.972 19.4702 104.978 19.4394 104.978 19.4084V16.6584C104.978 16.6276 104.972 16.597 104.961 16.5685C104.949 16.54 104.932 16.514 104.91 16.4921C104.888 16.4702 104.863 16.4528 104.834 16.441C104.806 16.4291 104.775 16.423 104.744 16.423ZM87.8192 16.1304C83.4947 16.1304 80.1034 19.4524 80.1034 23.6918C80.1034 27.8872 83.4706 31.1718 87.7663 31.1718C92.1061 31.1718 95.5061 27.863 95.5061 23.639C95.5061 19.4282 92.1305 16.1304 87.8192 16.1304ZM87.8192 27.9268C85.5179 27.9268 83.7814 26.0832 83.7814 23.6368C83.7814 21.1838 85.4585 19.404 87.7663 19.404C90.0829 19.404 91.8259 21.2476 91.8259 23.694C91.8259 26.147 90.1426 27.9268 87.8192 27.9268ZM72.3438 16.1304C70.5345 16.1304 69.052 16.841 67.8296 18.2952V16.6584C67.8296 16.5964 67.8052 16.5368 67.7613 16.4927C67.7174 16.4487 67.658 16.4236 67.5957 16.423H64.3854C64.3234 16.4236 64.264 16.4487 64.2201 16.4927C64.1762 16.5368 64.1516 16.5964 64.1516 16.6584V34.8526C64.1516 34.98 64.2575 35.0855 64.3854 35.0855H67.5957C67.6577 35.085 67.7169 35.0604 67.7605 35.0167C67.8044 34.973 67.829 34.914 67.8296 34.8526V29.1106C69.0542 30.4765 70.5368 31.1453 72.3438 31.1453C75.7019 31.1453 79.1019 28.567 79.1019 23.639C79.1019 18.711 75.7041 16.1304 72.3438 16.1304ZM75.3709 23.639C75.3709 26.147 73.8199 27.9004 71.6004 27.9004C69.405 27.9004 67.7503 26.0678 67.7503 23.639C67.7503 21.2102 69.405 19.3776 71.6004 19.3776C73.7845 19.3776 75.3732 21.1684 75.3732 23.639H75.3709ZM56.7582 19.657C53.1751 18.8034 52.5376 18.205 52.5376 16.9488C52.5376 15.7608 53.6583 14.9622 55.3263 14.9622C56.9414 14.9622 58.5454 15.5672 60.2245 16.8168C60.2494 16.8353 60.2777 16.8486 60.308 16.856C60.3383 16.8634 60.3697 16.8649 60.4003 16.8601C60.4311 16.8554 60.4606 16.8447 60.4872 16.8286C60.5138 16.8125 60.537 16.7913 60.5554 16.7662L62.3072 14.3044C62.3412 14.2558 62.3556 14.1961 62.3474 14.1374C62.3392 14.0787 62.3089 14.0252 62.263 13.9876C60.2641 12.386 58.0115 11.6094 55.3793 11.6094C51.5071 11.6094 48.8044 13.9238 48.8044 17.2392C48.8044 20.7922 51.1365 22.0506 55.1675 23.0208C58.5961 23.8084 59.1764 24.4684 59.1764 25.6498C59.1764 26.9566 58.007 27.7684 56.1204 27.7684C54.0289 27.7684 52.3235 27.0644 50.4127 25.4188C50.3648 25.3783 50.3034 25.3578 50.2405 25.3616C50.2094 25.364 50.1791 25.3727 50.1516 25.387C50.1239 25.4014 50.0993 25.4212 50.0794 25.4452L48.1159 27.7728C48.076 27.8192 48.0559 27.8796 48.0604 27.9406C48.0649 28.0017 48.0938 28.0584 48.1402 28.0984C50.3037 30.0529 53.1219 31.1303 56.0412 31.119C60.2112 31.119 62.9074 28.8466 62.9074 25.3308C62.9074 22.3586 61.1267 20.7152 56.7582 19.6548V19.657ZM20.9756 0.671021C15.4692 0.671021 10.1884 2.85212 6.29485 6.7345C2.40126 10.6169 0.213867 15.8825 0.213867 21.373C0.213867 26.8635 2.40126 32.1291 6.29485 36.0115C10.1884 39.8939 15.4692 42.075 20.9756 42.075C26.482 42.075 31.7629 39.8939 35.6563 36.0115C39.55 32.1291 41.7375 26.8635 41.7375 21.373C41.7375 15.8825 39.55 10.6169 35.6563 6.7345C31.7629 2.85212 26.482 0.671021 20.9756 0.671021ZM30.4983 30.5296C30.4097 30.6745 30.2936 30.8006 30.156 30.9007C30.0187 31.0006 29.8627 31.0728 29.6974 31.1126C29.5318 31.1523 29.3602 31.1594 29.1921 31.1329C29.0239 31.1064 28.8628 31.0471 28.7176 30.9586C23.8417 27.9884 17.708 27.3174 10.48 28.963C10.3144 29.0008 10.143 29.0056 9.97554 28.9772C9.80809 28.9489 9.64789 28.8877 9.50408 28.7978C9.36024 28.7078 9.23562 28.5902 9.13733 28.4523C9.03901 28.314 8.96897 28.1579 8.93115 27.9928C8.89335 27.8277 8.88851 27.6568 8.91694 27.4898C8.94539 27.3228 9.00654 27.1631 9.09687 27.0197C9.18724 26.8763 9.30503 26.752 9.44352 26.654C9.58204 26.556 9.73857 26.4861 9.90415 26.4484C17.8117 24.6444 24.5962 25.421 30.068 28.7563C30.6769 29.128 30.8689 29.9223 30.4983 30.5296ZM33.0354 24.893C32.8109 25.2572 32.4508 25.5178 32.0338 25.6176C31.6171 25.7174 31.1774 25.6483 30.8114 25.4254C25.2317 22.0044 16.724 21.0144 10.1226 23.012C9.72093 23.107 9.29807 23.0457 8.94018 22.8406C8.58229 22.6355 8.31632 22.302 8.19646 21.9082C8.07659 21.5143 8.1119 21.0897 8.29514 20.7209C8.47839 20.352 8.7958 20.0668 9.18268 19.9232C16.724 17.6418 26.0965 18.7484 32.5037 22.6732C32.6852 22.7841 32.8429 22.9295 32.968 23.1012C33.0931 23.2729 33.1832 23.4675 33.2327 23.6739C33.2822 23.8802 33.2905 24.0943 33.2571 24.3039C33.2236 24.5135 33.1492 24.7144 33.0377 24.8952L33.0354 24.893ZM33.2585 19.0234C26.5643 15.0612 15.5237 14.696 9.13634 16.632C8.89123 16.71 8.63302 16.7386 8.3767 16.7162C8.12039 16.6938 7.8711 16.6208 7.64335 16.5015C7.41557 16.3822 7.21383 16.2189 7.04989 16.0212C6.88595 15.8235 6.76306 15.5953 6.68835 15.3498C6.61364 15.1043 6.58859 14.8464 6.61472 14.5912C6.64082 14.336 6.71754 14.0885 6.8404 13.863C6.96326 13.6376 7.12984 13.4388 7.33044 13.2782C7.53104 13.1175 7.76165 12.9982 8.00891 12.9272C15.3406 10.7052 27.5329 11.1364 35.2353 15.6948C35.6781 15.9568 35.9986 16.3835 36.1262 16.8811C36.2536 17.3787 36.1775 17.9063 35.9148 18.348C35.652 18.7897 35.224 19.1092 34.7252 19.2363C34.2261 19.3634 33.697 19.2876 33.2539 19.0256" fill="#1CD155"></path></svg>